<?xml version="1.0" encoding="UTF-8"?>
<svg version="1.1" xmlns="http://www.w3.org/2000/svg" width="1024" height="1024">
<path d="M0 0 C337.92 0 675.84 0 1024 0 C1024 337.92 1024 675.84 1024 1024 C686.08 1024 348.16 1024 0 1024 C0 686.08 0 348.16 0 0 Z " fill="#000000" transform="translate(0,0)"/>
<path d="M0 0 C2.22003441 0.00663825 4.4400814 0.00986842 6.66012573 0.00984192 C11.30581679 0.01912347 15.94994068 0.05831564 20.59521484 0.12084961 C26.54852409 0.20019583 32.50028701 0.22250592 38.45407295 0.22469616 C43.03525837 0.22966909 47.61611298 0.25594144 52.19717026 0.28957558 C54.39238705 0.30481223 56.58764039 0.31548958 58.78290176 0.32152367 C61.84954491 0.33490953 64.91468171 0.37480789 67.98095703 0.42260742 C68.88705719 0.42236572 69.79315735 0.42212402 70.72671509 0.421875 C74.81699358 0.51217979 77.04377592 0.6587083 80.57199097 2.87886047 C83.047621 5.47005833 85.24668709 8.20033651 87.3671875 11.08203125 C88.24470526 12.24844172 89.12363747 13.41378927 90.00390625 14.578125 C90.44138184 15.15804199 90.87885742 15.73795898 91.32958984 16.33544922 C94.63629215 20.66037006 98.14694225 24.82580731 101.6171875 29.01953125 C106.53813527 34.966401 111.41134873 40.94950299 116.1796875 47.01953125 C116.84278931 47.84783447 116.84278931 47.84783447 117.51928711 48.69287109 C120.6171875 52.67421253 120.6171875 52.67421253 120.6171875 56.01953125 C121.51032654 55.83161011 122.40346558 55.64368896 123.32366943 55.45007324 C131.739225 53.68013762 140.15557527 51.91404216 148.57284164 50.15225983 C152.90024666 49.24636759 157.22732942 48.33899148 161.55371094 47.42822266 C165.72860395 46.54940144 169.90429685 45.67448019 174.08057404 44.80226135 C175.67406597 44.46874368 177.26726426 44.13381981 178.86016083 43.79747009 C181.09058403 43.32675309 183.32199719 42.86103834 185.55371094 42.39648438 C186.82390076 42.13001099 188.09409058 41.8635376 189.402771 41.58898926 C192.6171875 41.01953125 192.6171875 41.01953125 196.6171875 41.01953125 C197.41425518 44.51945821 197.73581777 47.73375435 197.71484375 51.3203125 C197.71162109 52.29677734 197.70839844 53.27324219 197.70507812 54.27929688 C197.69669922 55.28669922 197.68832031 56.29410156 197.6796875 57.33203125 C197.67517578 58.35876953 197.67066406 59.38550781 197.66601562 60.44335938 C197.65426934 62.96881007 197.63784315 65.4941403 197.6171875 68.01953125 C193.75790568 69.34631516 189.91825358 70.50151098 185.953125 71.46484375 C184.84791504 71.73345215 183.74270508 72.00206055 182.60400391 72.27880859 C180.81615479 72.70734131 180.81615479 72.70734131 178.9921875 73.14453125 C177.12119385 73.5943335 177.12119385 73.5943335 175.21240234 74.05322266 C164.57739248 76.59630188 153.91445261 79.01327411 143.2421875 81.39453125 C142.46188171 81.56938049 141.68157593 81.74422974 140.87762451 81.92437744 C138.63784768 82.42536849 136.39722732 82.92237837 134.15625 83.41796875 C132.86928223 83.70333496 131.58231445 83.98870117 130.25634766 84.28271484 C126.71036907 85.00066489 123.20202111 85.54621532 119.6171875 86.01953125 C119.62878906 86.91414063 119.64039063 87.80875 119.65234375 88.73046875 C119.66587891 90.54417969 119.66587891 90.54417969 119.6796875 92.39453125 C119.69128906 93.57789063 119.70289063 94.76125 119.71484375 95.98046875 C119.6903852 99.10374884 119.43423464 102.16570091 119.11108398 105.27197266 C119.01915268 106.16365143 118.92722137 107.0553302 118.83250427 107.97402954 C118.76144974 108.6490451 118.6903952 109.32406067 118.6171875 110.01953125 C119.15413742 109.90757416 119.69108734 109.79561707 120.24430847 109.68026733 C132.59888998 107.10436721 144.95381028 104.53010056 157.3092041 101.95809937 C162.87694655 100.79893277 168.44439871 99.63840427 174.01124573 98.47494507 C176.0963001 98.03939798 178.18152778 97.6046935 180.2668457 97.17041016 C182.69929392 96.66380288 185.13143756 96.15573036 187.56323242 95.64599609 C189.14841675 95.31656006 189.14841675 95.31656006 190.765625 94.98046875 C191.66458496 94.79274902 192.56354492 94.6050293 193.48974609 94.41162109 C195.6171875 94.01953125 195.6171875 94.01953125 197.6171875 94.01953125 C197.6171875 103.58953125 197.6171875 113.15953125 197.6171875 123.01953125 C192.81607422 123.99792969 192.81607422 123.99792969 187.91796875 124.99609375 C165.14430646 129.63857649 142.3738068 134.29411303 119.6171875 139.01953125 C119.2871875 146.93953125 118.9571875 154.85953125 118.6171875 163.01953125 C122.83624863 162.1757347 122.83624863 162.1757347 127.05528259 161.33180237 C130.80176016 160.58234514 134.54836668 159.83354037 138.29516602 159.08569336 C146.17337589 157.51255861 154.05041869 155.93411375 161.92391968 154.33755493 C165.57754116 153.59699117 169.2317386 152.85929273 172.88598633 152.12182617 C174.66230822 151.76253172 176.43835185 151.4018588 178.21411133 151.03979492 C180.71105732 150.53084086 183.20892209 150.0266465 185.70703125 149.5234375 C186.45033188 149.37064835 187.19363251 149.21785919 187.9594574 149.06044006 C191.27943128 148.39615403 194.21210794 148.01953125 197.6171875 148.01953125 C197.6171875 156.26953125 197.6171875 164.51953125 197.6171875 173.01953125 C183.85608267 176.34795074 169.94814725 178.92416658 156.05053711 181.61010742 C152.72470627 182.25369959 149.39936597 182.8997608 146.07421875 183.546875 C145.00301788 183.75436371 143.93181702 183.96185242 142.82815552 184.17562866 C137.92400829 185.13495221 133.03702165 186.13082776 128.16943359 187.26220703 C127.34255539 187.4542421 126.51567719 187.64627716 125.66374207 187.84413147 C124.1543235 188.20056953 122.64700336 188.56608071 121.14253235 188.94285583 C114.42088236 190.54138953 110.80185242 189.3502918 104.890625 186.02734375 C103.2346228 185.10223999 103.2346228 185.10223999 101.54516602 184.15844727 C100.36070154 183.48738598 99.17637865 182.81607475 97.9921875 182.14453125 C96.76319155 181.45389689 95.53394096 180.7637155 94.30444336 180.07397461 C86.07598787 175.44883634 77.89202649 170.74765988 69.73828125 165.9921875 C61.87188906 161.41136963 53.95367403 156.91993227 46.04516602 152.41235352 C45.45839584 152.07764542 44.87162567 151.74293732 44.26707458 151.39808655 C42.66285335 150.48302374 41.05824613 149.56863769 39.45361328 148.65429688 C36.6171875 147.01953125 36.6171875 147.01953125 34.05810547 145.24414062 C31.6942131 143.80124027 31.6942131 143.80124027 29.09033203 144.18115234 C26.53408948 145.0477009 24.38141274 146.07984686 22.046875 147.43359375 C20.72333008 148.1925293 20.72333008 148.1925293 19.37304688 148.96679688 C18.42236328 149.52044922 17.47167969 150.07410156 16.4921875 150.64453125 C14.4172809 151.83570598 12.34173349 153.02576504 10.265625 154.21484375 C9.17862305 154.83907227 8.09162109 155.46330078 6.97167969 156.10644531 C1.38149329 159.29456035 -4.25157959 162.40468225 -9.8828125 165.51953125 C-20.49057856 171.39861663 -31.06524818 177.33384416 -41.6171875 183.3125 C-42.44412109 183.77317871 -43.27105469 184.23385742 -44.12304688 184.70849609 C-46.34902456 185.9577009 -46.34902456 185.9577009 -48.22070312 187.30322266 C-54.46308307 191.55261925 -61.16318288 189.48131596 -68.15698242 188.17504883 C-69.81007391 187.84295307 -71.46214648 187.5057539 -73.11328125 187.1640625 C-74.46607178 186.89060249 -74.46607178 186.89060249 -75.84619141 186.61161804 C-78.75513979 186.02279913 -81.66270866 185.42745032 -84.5703125 184.83203125 C-88.60115015 184.01358539 -92.6326201 183.19827355 -96.6640625 182.3828125 C-97.66189255 182.18048004 -98.6597226 181.97814758 -99.68778992 181.76968384 C-105.84086375 180.52431876 -111.99844057 179.30665573 -118.1640625 178.125 C-119.26032707 177.91481987 -119.26032707 177.91481987 -120.3787384 177.70039368 C-123.74083659 177.05722534 -127.10377712 176.41890718 -130.4675293 175.78442383 C-131.62937744 175.56294678 -132.79122559 175.34146973 -133.98828125 175.11328125 C-135.49104614 174.83000977 -135.49104614 174.83000977 -137.02416992 174.54101562 C-139.3828125 174.01953125 -139.3828125 174.01953125 -141.3828125 173.01953125 C-141.3828125 164.76953125 -141.3828125 156.51953125 -141.3828125 148.01953125 C-126.66903989 150.4889756 -112.02333629 153.21548872 -97.3828125 156.08203125 C-96.50698517 156.25347656 -95.63115784 156.42492187 -94.72879028 156.6015625 C-83.94166456 158.71539489 -73.16033353 160.85729109 -62.3828125 163.01953125 C-62.7128125 155.42953125 -63.0428125 147.83953125 -63.3828125 140.01953125 C-66.28755371 139.40694458 -66.28755371 139.40694458 -69.25097656 138.78198242 C-75.69339436 137.42277805 -82.1353712 136.06149941 -88.5770607 134.69884777 C-92.47756042 133.87382773 -96.37822525 133.04960685 -100.27929688 132.22729492 C-104.05337053 131.4317209 -107.82697182 130.63393987 -111.60027313 129.83471107 C-113.03039132 129.53218395 -114.46067001 129.23041437 -115.89112091 128.92946434 C-117.91516634 128.50348531 -119.93859151 128.07466136 -121.96191406 127.64526367 C-123.10774963 127.40321701 -124.25358521 127.16117035 -125.43414307 126.91178894 C-130.77181965 125.70566545 -136.07394975 124.34674694 -141.3828125 123.01953125 C-141.3828125 113.77953125 -141.3828125 104.53953125 -141.3828125 95.01953125 C-135.72285157 95.6484158 -130.46479804 96.30428552 -124.93530273 97.41821289 C-124.25123856 97.55490891 -123.56717438 97.69160492 -122.86238098 97.83244324 C-120.63797184 98.27787517 -118.41469906 98.72871981 -116.19140625 99.1796875 C-114.63491991 99.49247939 -113.07836456 99.80492803 -111.52174377 100.11705017 C-107.45229941 100.9339734 -103.38380113 101.75551487 -99.31549072 102.57806396 C-95.15295229 103.41879878 -90.98952429 104.25510406 -86.82617188 105.09179688 C-78.67751471 106.73007261 -70.52985295 108.37323463 -62.3828125 110.01953125 C-62.7128125 109.02953125 -63.0428125 108.03953125 -63.3828125 107.01953125 C-63.46425105 105.39233643 -63.4903427 103.76201406 -63.48046875 102.1328125 C-63.47563477 100.72612305 -63.47563477 100.72612305 -63.47070312 99.29101562 C-63.45813477 97.82631836 -63.45813477 97.82631836 -63.4453125 96.33203125 C-63.44080078 95.34396484 -63.43628906 94.35589844 -63.43164062 93.33789062 C-63.41985553 90.89837651 -63.40340261 88.45898436 -63.3828125 86.01953125 C-64.42445557 85.80184082 -65.46609863 85.58415039 -66.53930664 85.35986328 C-80.06906413 82.52550292 -93.58539225 79.62965253 -107.0949707 76.70068359 C-109.60492715 76.15753685 -112.11535515 75.6165652 -114.6262207 75.07763672 C-118.29491014 74.28994961 -121.96204011 73.49534469 -125.62890625 72.69921875 C-126.75171494 72.45960419 -127.87452362 72.21998962 -129.03135681 71.97311401 C-130.0708699 71.74592682 -131.110383 71.51873962 -132.18139648 71.28466797 C-133.09227524 71.0879953 -134.00315399 70.89132263 -134.94163513 70.68869019 C-137.29451281 70.04373536 -139.2504726 69.19197144 -141.3828125 68.01953125 C-141.44078815 64.08209292 -141.47640039 60.14476406 -141.5078125 56.20703125 C-141.52457031 55.08748047 -141.54132813 53.96792969 -141.55859375 52.81445312 C-141.56503906 51.74130859 -141.57148438 50.66816406 -141.578125 49.5625 C-141.58859863 48.5727417 -141.59907227 47.5829834 -141.60986328 46.56323242 C-141.3828125 44.01953125 -141.3828125 44.01953125 -139.3828125 41.01953125 C-131.80133997 42.53115309 -124.22008664 44.0438693 -116.63909721 45.55791187 C-113.11741161 46.26121358 -109.59565677 46.96416428 -106.07373047 47.66625977 C-102.66298385 48.34620595 -99.25243639 49.02714336 -95.84201431 49.70871544 C-93.93377931 50.08982325 -92.02534909 50.46995312 -90.11691284 50.85005188 C-81.85603719 52.50212303 -73.6158502 54.23405142 -65.3828125 56.01953125 C-64.83109375 54.99472656 -64.279375 53.96992188 -63.7109375 52.9140625 C-61.55190081 49.13954273 -58.9981856 45.96204294 -56.1328125 42.70703125 C-55.1448044 41.56208501 -54.15783131 40.41624484 -53.171875 39.26953125 C-52.69266602 38.71394531 -52.21345703 38.15835938 -51.71972656 37.5859375 C-49.2758298 34.72252596 -46.9510798 31.7663706 -44.61328125 28.81640625 C-41.18142296 24.51306031 -37.69667414 20.25273777 -34.21337891 15.9909668 C-33.42906494 15.02864136 -33.42906494 15.02864136 -32.62890625 14.046875 C-32.10814011 13.43895615 -31.58737396 12.83103729 -31.05082703 12.20469666 C-29.31442746 10.09762876 -29.31442746 10.09762876 -28.32145691 7.69332886 C-22.81755461 -2.76783655 -10.16612166 -0.16850864 0 0 Z " fill="#F50000" transform="translate(472.3828125,155.98046875)"/>
<path d="M0 0 C54.78 0 109.56 0 166 0 C163.74719801 11.26400996 163.74719801 11.26400996 162.2578125 16.0546875 C161.92096436 17.14265625 161.58411621 18.230625 161.23706055 19.3515625 C160.68659058 21.09566406 160.68659058 21.09566406 160.125 22.875 C159.83189438 23.81085938 159.83189438 23.81085938 159.53286743 24.765625 C155.90726629 36.34150293 152.09026249 47.85155694 148.22607422 59.34960938 C145.01532438 68.91200476 141.85035329 78.48860278 138.72152138 88.07811737 C138.06323236 90.09566494 137.40449203 92.11306468 136.74565125 94.13043213 C134.10170633 102.22697412 134.10170633 102.22697412 131.46591187 110.32617188 C127.29931028 123.14971052 123.1070869 135.96297872 118.578125 148.6640625 C118.25922302 149.57441254 117.94032104 150.48476257 117.61175537 151.42269897 C117.31094055 152.25209991 117.01012573 153.08150085 116.70019531 153.93603516 C116.44280579 154.65344879 116.18541626 155.37086243 115.92022705 156.11001587 C113.65441292 160.76359865 110.02417873 162.01386705 105.37109375 163.87109375 C104.69038818 164.14524109 104.00968262 164.41938843 103.30834961 164.70184326 C101.02089744 165.62097269 98.72921742 166.52906327 96.4375 167.4375 C94.80513087 168.09148274 93.17305807 168.74620557 91.54125977 169.40161133 C86.03163512 171.61147079 80.51592619 173.80592762 75 176 C66.47790329 179.39266695 57.95710648 182.78858466 49.4375 186.1875 C48.36298584 186.61589172 47.28847168 187.04428345 46.18139648 187.48565674 C30.59703158 193.70287365 15.11991155 200.1044649 -0.26123047 206.80859375 C-4.53838354 208.66922015 -8.82536338 210.50447361 -13.125 212.3125 C-13.81343994 212.60938721 -14.50187988 212.90627441 -15.21118164 213.2121582 C-16.78355654 213.86857052 -18.38943995 214.44381993 -20 215 C-20.66 214.67 -21.32 214.34 -22 214 C-21.32795532 213.29037109 -21.32795532 213.29037109 -20.64233398 212.56640625 C-18.57251045 210.37906087 -16.5049977 208.18954382 -14.4375 206 C-13.73302734 205.25621094 -13.02855469 204.51242187 -12.30273438 203.74609375 C-8.33186923 199.53734268 -4.45577606 195.26918169 -0.66430664 190.8984375 C1.99072419 187.86990299 4.74247751 184.93501078 7.5 182 C8.39187012 181.04722168 8.39187012 181.04722168 9.30175781 180.07519531 C12.49406335 176.66617974 15.69243304 173.26286715 18.890625 169.859375 C19.85838867 168.82876953 19.85838867 168.82876953 20.84570312 167.77734375 C22.06223168 166.48220874 23.27959653 165.18785843 24.49804688 163.89453125 C29.73276885 158.32417468 34.86868153 152.66545268 40 147 C32.35423672 147.26389783 24.70858098 147.53076645 17.06298828 147.79956055 C14.46991238 147.89039055 11.87681383 147.98057646 9.28369141 148.07006836 C-9.61632044 148.70711596 -9.61632044 148.70711596 -28.50045776 149.69297791 C-34.00475439 150.03226962 -39.48736266 150.10928136 -45 150 C-42.09499917 147.70286542 -39.15508363 145.93390228 -35.86328125 144.2421875 C-34.8278418 143.70770996 -33.79240234 143.17323242 -32.72558594 142.62255859 C-31.59926758 142.04586426 -30.47294922 141.46916992 -29.3125 140.875 C-28.11863747 140.26027325 -26.92495676 139.64519327 -25.73144531 139.02978516 C-23.17115786 137.71046687 -20.60973044 136.39339951 -18.04736328 135.078125 C-11.81514775 131.87907109 -5.58820694 128.66976987 0.63946533 125.46188354 C2.74948537 124.37526502 4.85982567 123.28927053 6.97021484 122.20336914 C16.14705363 117.47987388 25.30872562 112.72836815 34.44628906 107.92919922 C36.10882511 107.05783892 37.77449455 106.19242893 39.44335938 105.33325195 C41.23439482 104.39925228 43.01079489 103.4368962 44.77539062 102.45385742 C50.23554581 99.51324919 55.21375669 97.56535498 61.3046875 96.32421875 C62.54734375 96.05029297 63.79 95.77636719 65.0703125 95.49414062 C67.61527025 94.95457823 70.17752327 94.49120239 72.75 94.10351562 C76.90564276 93.09930759 80.20206716 92.30268746 83 89 C86.46122625 81.13881079 87.74841611 72.4478697 89 64 C88.3571254 64.04345047 87.71425079 64.08690094 87.05189514 64.13166809 C78.72225304 64.69427493 70.39244221 65.25435569 62.0625 65.8125 C61.39180984 65.85744095 60.72111969 65.9023819 60.03010559 65.94868469 C33.35952947 67.73472958 6.68273827 69.40535549 -20 71 C-19.67314209 69.83355957 -19.34628418 68.66711914 -19.00952148 67.46533203 C-17.48389216 62.01900812 -15.96035651 56.57209981 -14.4375 51.125 C-14.16432953 50.1481424 -13.89115906 49.17128479 -13.60971069 48.16482544 C-9.98867134 35.20942671 -6.40239247 22.24717658 -2.96850586 9.24072266 C-2.71721924 8.29374512 -2.46593262 7.34676758 -2.20703125 6.37109375 C-1.88955933 5.1634436 -1.88955933 5.1634436 -1.56567383 3.93139648 C-1 2 -1 2 0 0 Z " fill="#F40000" transform="translate(585,358)"/>
<path d="M0 0 C52.47 0 104.94 0 159 0 C161.73840778 6.1614175 164.08922637 11.96961461 166.0234375 18.36328125 C166.29209625 19.23534714 166.560755 20.10741302 166.83755493 21.00590515 C167.68862173 23.7731907 168.53188445 26.54278297 169.375 29.3125 C169.93179176 31.12580462 170.48908022 32.9389568 171.046875 34.75195312 C174.75284087 46.81810612 178.3858028 58.90608867 182 71 C173.97407029 71.19540067 166.16947169 70.91617924 158.1875 70.125 C149.55917303 69.26998158 140.93275549 68.66548026 132.27661133 68.17984009 C119.72565422 67.47488464 107.20691064 66.57600742 94.6875 65.4375 C93.97177826 65.37337921 93.25605652 65.30925842 92.51864624 65.24319458 C79.84247476 64.10028363 79.84247476 64.10028363 76 63 C76.21205078 63.71655762 76.42410156 64.43311523 76.64257812 65.17138672 C77.5978408 68.40510833 78.54897053 71.64003101 79.5 74.875 C79.83386719 76.00292969 80.16773438 77.13085938 80.51171875 78.29296875 C80.82753906 79.36933594 81.14335937 80.44570313 81.46875 81.5546875 C81.76201172 82.54968262 82.05527344 83.54467773 82.35742188 84.56982422 C83 87 83 87 83 89 C84.92779297 89.40605469 84.92779297 89.40605469 86.89453125 89.8203125 C102.26544033 93.25739773 115.75156296 99.13051971 129.3984375 106.890625 C134.97445246 110.04288004 140.69662037 112.79521756 146.5 115.5 C154.83368994 119.40868478 162.9333309 123.60264413 170.97900391 128.07128906 C179.85255926 132.97696874 188.85565719 137.61990514 197.875 142.25 C199.00358429 142.82950409 199.00358429 142.82950409 200.15496826 143.42071533 C204.43480933 145.61740748 208.7165791 147.81029713 213 150 C213 150.33 213 150.66 213 151 C204.79470691 151.13064288 196.6930394 150.72660486 188.51171875 150.125 C185.92252861 149.94267184 183.33333582 149.76038134 180.74414062 149.578125 C177.38607015 149.33849304 174.028144 149.09686711 170.67028809 148.85424805 C166.07614078 148.5223695 161.48151312 148.19782588 156.88671875 147.875 C155.70293137 147.78750488 154.51914398 147.70000977 153.29948425 147.60986328 C145.18775949 147.04234978 137.13038164 146.90284544 129 147 C129.48307114 147.50538803 129.96614227 148.01077606 130.46385193 148.53147888 C137.77953054 156.19092071 145.00161429 163.81525674 151.58984375 172.1171875 C155.37381992 176.64324003 159.44404389 180.89581539 163.51000977 185.16821289 C167.22634595 189.07768228 170.83209751 193.05712215 174.36621094 197.13208008 C177.44993514 200.65771873 180.66842426 204.05956659 183.86328125 207.484375 C185.71278799 209.66185642 186.80206606 211.45223854 188 214 C180.14431853 211.87203452 172.63444197 208.98743963 165.08969116 205.96243286 C161.43476723 204.49774111 157.77389533 203.04805574 154.11328125 201.59765625 C153.35735184 201.29788376 152.60142242 200.99811127 151.82258606 200.68925476 C143.96935298 197.58085646 136.0811856 194.56633875 128.1875 191.5625 C111.08359179 185.04585038 94.00917081 178.456255 76.97027588 171.7713623 C75.09254965 171.03623316 73.21306629 170.30559694 71.33349609 169.57519531 C68.1964792 168.35406249 65.06601511 167.11771867 61.9375 165.875 C60.6086377 165.36211426 60.6086377 165.36211426 59.25292969 164.83886719 C58.05845215 164.35788574 58.05845215 164.35788574 56.83984375 163.8671875 C55.82458618 163.46669189 55.82458618 163.46669189 54.78881836 163.05810547 C49.65340911 160.02045518 48.54320351 154.23874943 46.83984375 148.89453125 C46.53780533 147.96757446 46.23576691 147.04061768 45.92457581 146.08557129 C44.92087289 142.99707858 43.92882195 139.90498707 42.9375 136.8125 C42.23343314 134.63228924 41.52899882 132.45219711 40.82421875 130.2722168 C38.93215011 124.40921731 37.05239597 118.54233676 35.17596436 112.67431641 C33.99272437 108.97726718 32.80563873 105.28147156 31.61767578 101.5859375 C15.82036485 52.40881138 15.82036485 52.40881138 10.5078125 31.30517578 C8.16352824 22.13675745 5.02161032 13.40127867 1.46875 4.63671875 C0 1 0 1 0 0 Z " fill="#F40000" transform="translate(250,358)"/>
<path d="M0 0 C2.3828125 1.90625 2.3828125 1.90625 4.125 4.5 C4.78242187 5.41523438 5.43984375 6.33046875 6.1171875 7.2734375 C6.73851562 8.17320313 7.35984375 9.07296875 8 10 C12.56658769 16.05236741 17.55650609 19.92283035 23.94140625 23.99609375 C28.55788438 27.02068287 32.76642323 30.46847365 37 34 C37.77988281 34.62132812 38.55976562 35.24265625 39.36328125 35.8828125 C40.08902344 36.47835937 40.81476563 37.07390625 41.5625 37.6875 C42.20316406 38.20699219 42.84382812 38.72648437 43.50390625 39.26171875 C46.33137398 42.54689666 46.14316026 47.01726841 46.34130859 51.20043945 C46.39172302 52.21901535 46.44213745 53.23759125 46.49407959 54.28703308 C46.5450177 55.38469498 46.59595581 56.48235687 46.6484375 57.61328125 C46.76612888 59.98585524 46.88414266 62.35841325 47.00244141 64.73095703 C47.09347137 66.58989594 47.09347137 66.58989594 47.18634033 68.48638916 C48.21289134 89.30534848 49.49002524 110.01795103 51.68457031 130.74707031 C52.24136255 136.48909804 52.62160586 142.24385535 53 148 C48.47552199 143.78111525 44.9361549 139.06261665 41.3125 134.0625 C40.69383057 133.2156665 40.07516113 132.36883301 39.43774414 131.49633789 C35.10104395 125.54932922 30.80744035 119.57203233 26.546875 113.5703125 C24.69812929 110.97005605 22.83037227 108.38444138 20.953125 105.8046875 C14.78367514 97.3213442 8.76879487 88.76123045 2.89990234 80.06713867 C-1.4428827 73.68887932 -6.06138709 67.55677925 -10.86328125 61.51733398 C-11.37632812 60.86450439 -11.889375 60.2116748 -12.41796875 59.5390625 C-13.09508911 58.69142334 -13.09508911 58.69142334 -13.78588867 57.82666016 C-15.22775085 55.65734329 -16.10259609 53.43853512 -17 51 C-17.64622314 51.10022461 -18.29244629 51.20044922 -18.95825195 51.30371094 C-20.93082083 51.60928848 -22.90348718 51.91423718 -24.8762207 52.21875 C-27.18884357 52.57628232 -29.50117691 52.93569191 -31.81323242 53.296875 C-38.05587553 54.26575676 -44.29966472 55.18643341 -50.5625 56.015625 C-51.77639404 56.18094727 -52.99028809 56.34626953 -54.2409668 56.51660156 C-56.58443975 56.833785 -58.92967532 57.13825921 -61.27661133 57.42871094 C-68.93787874 58.42953234 -68.93787874 58.42953234 -75 63 C-75.52722656 63.54398438 -76.05445313 64.08796875 -76.59765625 64.6484375 C-77.08105469 65.21820313 -77.56445312 65.78796875 -78.0625 66.375 C-78.65417969 67.0659375 -79.24585938 67.756875 -79.85546875 68.46875 C-80.56316406 69.3040625 -81.27085937 70.139375 -82 71 C-83.95584555 73.29379631 -85.9151537 75.58462162 -87.875 77.875 C-88.39288086 78.48085937 -88.91076172 79.08671875 -89.44433594 79.7109375 C-93.22136109 84.11943775 -97.06995119 88.45599055 -100.97265625 92.75390625 C-103.45574295 95.50491753 -105.88215899 98.30221033 -108.296875 101.11328125 C-108.85890625 101.73589844 -109.4209375 102.35851562 -110 103 C-110.58837646 103.85384277 -111.17675293 104.70768555 -111.78295898 105.58740234 C-115.35362327 109.10740033 -119.65946389 108.56802789 -124.40950012 108.56648254 C-126.27380928 108.5277729 -126.27380928 108.5277729 -128.17578125 108.48828125 C-129.45607712 108.48120651 -130.73637299 108.47413177 -132.0554657 108.46684265 C-135.44745312 108.44781714 -138.83835774 108.39875838 -142.22991943 108.34332275 C-145.69544834 108.29203199 -149.16115347 108.26930789 -152.62695312 108.24414062 C-159.41843687 108.1890341 -166.20912029 108.10537646 -173 108 C-171.46729971 103.93329744 -169.69631527 101.14007916 -166.875 97.8125 C-166.06160156 96.84183594 -165.24820312 95.87117188 -164.41015625 94.87109375 C-163.21712891 93.44990234 -163.21712891 93.44990234 -162 92 C-160.76547609 90.46261991 -159.53613469 88.92106111 -158.3125 87.375 C-152.81957753 80.48669803 -147.2460866 73.65119851 -141.55395508 66.92626953 C-139.99278113 65.06737039 -139.99278113 65.06737039 -138.8425293 63.16357422 C-137.75 61.5078125 -137.75 61.5078125 -135 59 C-131.36448032 58.28533486 -127.87387884 58.43189218 -124.1875 58.625 C-122.71893555 58.66560547 -122.71893555 58.66560547 -121.22070312 58.70703125 C-118.81153379 58.77754352 -116.40691181 58.87601432 -114 59 C-115.1241176 57.70756532 -116.24932592 56.41607925 -117.375 55.125 C-118.00148438 54.40570313 -118.62796875 53.68640625 -119.2734375 52.9453125 C-120.47426834 51.5923402 -121.7208345 50.2791655 -123 49 C-122.58486566 44.28336727 -120.62030678 39.76753797 -118.9375 35.375 C-118.67517578 34.611875 -118.41285156 33.84875 -118.14257812 33.0625 C-117.85705078 32.32773437 -117.57152344 31.59296875 -117.27734375 30.8359375 C-117.03234131 30.17126465 -116.78733887 29.5065918 -116.53491211 28.82177734 C-111.75812622 23.15224079 -100.25613868 22.17932072 -93.4140625 20.48828125 C-92.08189417 20.15557268 -90.74981913 19.82249037 -89.41783142 19.48905945 C-85.88253733 18.60557575 -82.34572911 17.72832037 -78.8083992 16.85302734 C-76.622244 16.31181772 -74.43642281 15.76927908 -72.2507019 15.22631836 C-63.74251041 13.1131351 -55.23183503 11.01020766 -46.71905518 8.91558838 C-43.41620831 8.10246567 -40.11399834 7.28682193 -36.81201172 6.47021484 C-32.75389539 5.46807741 -28.69338046 4.47668021 -24.6293335 3.49887085 C-23.27082726 3.17096869 -21.91308907 2.83986492 -20.55621338 2.50527954 C-6.96933287 -0.83548446 -6.96933287 -0.83548446 0 0 Z " fill="#F50000" transform="translate(623,26)"/>
<path d="M0 0 C12.54 0 25.08 0 38 0 C43.60834336 13.46002406 43.60834336 13.46002406 45.4453125 19.18359375 C45.87664886 20.50937637 46.30830664 21.83505445 46.74023438 23.16064453 C46.96412842 23.85305237 47.18802246 24.54546021 47.41870117 25.2588501 C52.790762 41.82951302 58.59646805 58.2373143 64.5 74.625 C64.90963989 75.76252716 65.31927979 76.90005432 65.74133301 78.072052 C67.36408038 82.57731115 68.98736234 87.08237681 70.61181641 91.58702087 C74.06655376 101.17118761 77.48397777 110.76812587 80.875 120.375 C81.10807861 121.03348938 81.34115723 121.69197876 81.58129883 122.37042236 C83.06929355 126.57511849 84.53747219 130.78638895 86 135 C86.23207153 135.65440063 86.46414307 136.30880127 86.70324707 136.98303223 C87.41766758 138.99876601 88.11993399 141.01841307 88.8203125 143.0390625 C89.23812988 144.22967285 89.65594727 145.4202832 90.08642578 146.64697266 C91 150 91 150 91 156 C81.1 156 71.2 156 61 156 C58.41489139 149.53722848 55.93782189 143.15387155 53.75 136.5625 C53.481875 135.77423828 53.21375 134.98597656 52.9375 134.17382812 C52.68484375 133.41650391 52.4321875 132.65917969 52.171875 131.87890625 C51.9459668 131.2041626 51.72005859 130.52941895 51.48730469 129.83422852 C51 128 51 128 51 125 C30.21 125.33 9.42 125.66 -12 126 C-15.3 135.57 -18.6 145.14 -22 155 C-23 156 -23 156 -25.95922852 156.11352539 C-27.25272217 156.10828857 -28.54621582 156.10305176 -29.87890625 156.09765625 C-30.90889992 156.09553383 -30.90889992 156.09553383 -31.95970154 156.09336853 C-34.16067801 156.08775479 -36.36155409 156.07520007 -38.5625 156.0625 C-40.05143083 156.05748676 -41.54036324 156.05292355 -43.02929688 156.04882812 C-46.68623075 156.03778093 -50.34310558 156.02050713 -54 156 C-53.50020309 147.97264971 -50.71628313 140.70712361 -48.0625 133.1875 C-47.56646973 131.76517506 -47.07078761 130.34272866 -46.57543945 128.92016602 C-41.26757495 113.73176937 -35.90230081 98.52981899 -29.81550598 83.63464355 C-26.59952155 75.74179114 -23.84059659 67.75539775 -21.21691895 59.64855957 C-14.70029412 39.55054742 -7.38657824 19.79602968 0 0 Z " fill="#FCF5EC" transform="translate(456,793)"/>
<path d="M0 0 C0.8981543 -0.00241196 1.79630859 -0.00482391 2.72167969 -0.00730896 C4.60746711 -0.006336 6.49328507 0.00692487 8.37890625 0.03198242 C11.243188 0.06632458 14.10438244 0.05260342 16.96875 0.03320312 C18.81251295 0.04010242 20.65626805 0.04977555 22.5 0.0625 C23.76602051 0.0550602 23.76602051 0.0550602 25.05761719 0.04747009 C31.77664166 0.1786489 37.97002389 1.72222107 43.10571289 6.27342224 C54.56837482 18.3864194 51.42253318 38.982325 51.453125 54.4453125 C51.45736607 55.90765981 51.45736607 55.90765981 51.46169281 57.39954948 C51.47657276 62.54981623 51.48587518 67.70005573 51.49023438 72.8503418 C51.49573118 78.13093631 51.5198171 83.41127462 51.54820633 88.69178867 C51.56692729 92.79189265 51.57204312 96.89193569 51.57357025 100.99207878 C51.57657128 102.93790031 51.58451202 104.88372143 51.59775543 106.8295002 C51.7761374 135.02760637 51.7761374 135.02760637 44.25 143.62890625 C37.61746517 149.97307 31.77828777 150.94154398 22.9765625 150.96484375 C22.09398773 150.97150055 21.21141296 150.97815735 20.30209351 150.98501587 C18.44132561 150.99510696 16.58052179 150.99983399 14.71972656 150.99951172 C11.89066239 151.00388205 9.06316336 151.04023065 6.234375 151.078125 C4.41927612 151.0839947 2.6041699 151.08796307 0.7890625 151.08984375 C-0.04764984 151.10421478 -0.88436218 151.11858582 -1.74642944 151.13339233 C-8.57741761 151.08090904 -13.64583317 149.14520431 -18.95703125 144.83984375 C-19.48683594 144.23398437 -20.01664062 143.628125 -20.5625 143.00390625 C-21.10519531 142.41351562 -21.64789063 141.823125 -22.20703125 141.21484375 C-26.52010897 133.98634387 -27.19145024 126.16283505 -27.13818359 117.921875 C-27.14344055 116.90259918 -27.14869751 115.88332336 -27.15411377 114.8331604 C-27.16722027 111.49408228 -27.15860875 108.15548846 -27.1484375 104.81640625 C-27.15046092 102.4781078 -27.15337458 100.13980997 -27.15713501 97.80151367 C-27.16154572 92.91286176 -27.1551676 88.02437485 -27.14111328 83.13574219 C-27.12402239 76.88841108 -27.13387027 70.64146672 -27.15183067 64.39414978 C-27.16270231 59.56926593 -27.15920664 54.74447286 -27.1514473 49.91958618 C-27.14945464 47.61683099 -27.15187151 45.31406739 -27.15888596 43.01132202 C-27.16655607 39.78597365 -27.15481823 36.5612404 -27.13818359 33.3359375 C-27.14729263 31.92666489 -27.14729263 31.92666489 -27.15658569 30.48892212 C-27.07779518 22.18843531 -25.57682656 13.81892195 -20.30908203 7.15061951 C-14.44408066 1.42619311 -7.9443047 -0.1247933 0 0 Z " fill="#F30000" transform="translate(365.75,601.37109375)"/>
<path d="M0 0 C2.79398855 0.0344364 5.5848274 0.02058998 8.37890625 0.0012207 C10.17579455 0.00811757 11.9726748 0.01778851 13.76953125 0.03051758 C14.59369537 0.02555771 15.4178595 0.02059784 16.26699829 0.01548767 C22.8764476 0.14832203 28.03188916 2.00919607 33.15625 6.23754883 C33.59324219 6.76864258 34.03023437 7.29973633 34.48046875 7.84692383 C34.93035156 8.36770508 35.38023437 8.88848633 35.84375 9.42504883 C40.08565658 16.38227614 40.60773442 22.6720898 40.57202148 30.62768555 C40.57888474 31.70519073 40.58574799 32.78269592 40.59281921 33.89285278 C40.61104774 37.43757487 40.60725489 40.98185264 40.6015625 44.52661133 C40.60612642 47.00229027 40.61143262 49.47796795 40.6174469 51.9536438 C40.62637047 57.13671014 40.62396359 62.31962234 40.61401367 67.50268555 C40.6025297 74.12904062 40.62273134 80.75486235 40.65193081 87.38114738 C40.67031992 92.49255731 40.6699948 97.60384009 40.66429329 102.71527481 C40.66414038 105.15759148 40.67015913 107.59991693 40.68258476 110.042202 C40.69754221 113.46426114 40.68678135 116.88534345 40.66967773 120.30737305 C40.6793457 121.30613464 40.68901367 122.30489624 40.69897461 123.33392334 C40.60894632 131.98115672 38.45024942 140.31464316 32.16796875 146.59692383 C27.90429688 149.58149414 24.25035872 150.70059403 19.09301758 150.77392578 C18.3015181 150.78676102 17.51001862 150.79959625 16.6945343 150.81282043 C15.84658798 150.82020737 14.99864166 150.8275943 14.125 150.83520508 C13.24196701 150.84327682 12.35893402 150.85134857 11.44914246 150.85966492 C9.58061674 150.87348021 7.71206605 150.88421376 5.84350586 150.89208984 C3.94369041 150.90359209 2.04390682 150.92401604 0.14428711 150.95361328 C-2.61236351 150.99653981 -5.36805553 151.01249446 -8.125 151.02270508 C-8.96282516 151.04021317 -9.80065033 151.05772125 -10.66386414 151.07575989 C-17.40294275 151.051337 -23.56033091 149.5202324 -28.69255066 144.93452454 C-35.33262583 137.97386218 -36.2771352 130.125783 -36.2043457 120.91748047 C-36.20799637 119.87738327 -36.21164703 118.83728607 -36.21540833 117.76567078 C-36.22347834 114.34597163 -36.20993188 110.92675167 -36.1953125 107.50708008 C-36.19479343 105.11868795 -36.19531295 102.73029539 -36.19682312 100.34190369 C-36.19673355 95.34294229 -36.18633615 90.34414267 -36.16821289 85.34521484 C-36.14553889 78.95206184 -36.1449812 72.55914531 -36.15173054 66.16596317 C-36.15507963 61.23561011 -36.14842248 56.30531049 -36.1386013 51.37496758 C-36.13476432 49.01835854 -36.13359483 46.66174354 -36.13518715 44.30513191 C-36.13555993 41.00522763 -36.12287735 37.70562107 -36.10668945 34.40576172 C-36.10916687 33.4408078 -36.11164429 32.47585388 -36.11419678 31.48165894 C-36.03632617 21.48472199 -34.5919842 13.25561382 -27.83203125 5.59692383 C-19.85662973 -0.98521066 -9.74422889 -0.13314135 0 0 Z " fill="#F30000" transform="translate(715.83203125,601.403076171875)"/>
<path d="M0 0 C61.03846154 0 61.03846154 0 68.6875 4.625 C74.29642282 10.38551533 76.11086765 18.16598653 76.16113281 25.98681641 C76.17074036 27.19552399 76.1803479 28.40423157 76.19024658 29.64956665 C76.19449646 30.95372528 76.19874634 32.25788391 76.203125 33.6015625 C76.20736607 34.60336611 76.20736607 34.60336611 76.21169281 35.62540817 C76.22666654 39.16417585 76.2359057 42.702903 76.24023438 46.24169922 C76.24569683 49.87281406 76.26968228 53.50354972 76.29820633 57.13454628 C76.31696659 59.94694038 76.3220455 62.75924589 76.32357025 65.57169724 C76.32801699 67.55342726 76.34660246 69.53510961 76.36553955 71.51675415 C76.3447486 80.0214391 76.07178819 88.1198465 70.625 95 C68.09982864 96.92394008 65.94538939 97.89671033 63 99 C63.1481163 99.53569107 63.2962326 100.07138214 63.44883728 100.62330627 C64.99507904 106.21888834 66.53527045 111.81611082 68.07202148 117.41430664 C68.64567825 119.50099324 69.22085592 121.58726236 69.79760742 123.6730957 C70.62823069 126.67810293 71.4533017 129.68458856 72.27734375 132.69140625 C72.66332985 134.08088219 72.66332985 134.08088219 73.05711365 135.49842834 C73.29728714 136.37881271 73.53746063 137.25919708 73.78491211 138.16625977 C73.99587021 138.93237076 74.20682831 139.69848175 74.42417908 140.48780823 C75.14222853 143.6205147 75.54547949 146.8183564 76 150 C68.41 150 60.82 150 53 150 C50.89872574 145.79745148 49.57507296 143.03801097 48.53515625 138.69140625 C48.2942627 137.70358154 48.05336914 136.71575684 47.80517578 135.69799805 C47.43755127 134.14592651 47.43755127 134.14592651 47.0625 132.5625 C46.54139868 130.41381145 46.01926337 128.26537339 45.49609375 126.1171875 C45.24327637 125.07401367 44.99045898 124.03083984 44.72998047 122.95605469 C43.47017638 117.85448015 42.07127071 112.7929861 40.6640625 107.73046875 C40 105 40 105 40 102 C35.05 102 30.1 102 25 102 C25.00785522 104.07450439 25.00785522 104.07450439 25.01586914 106.19091797 C25.03393119 111.30842444 25.04543645 116.42592808 25.05493164 121.54345703 C25.05996909 123.76090976 25.06679922 125.97835916 25.07543945 128.19580078 C25.08753072 131.37793805 25.0932341 134.56003151 25.09765625 137.7421875 C25.10281754 138.73805878 25.10797882 139.73393005 25.11329651 140.75997925 C25.11340981 142.14118454 25.11340981 142.14118454 25.11352539 143.55029297 C25.115746 144.3630368 25.11796661 145.17578064 25.12025452 146.01315308 C25 148 25 148 24 150 C16.08 150 8.16 150 0 150 C0 100.5 0 51 0 0 Z " fill="#F30000" transform="translate(438,602)"/>
<path d="M0 0 C0.68811768 0.40202637 1.37623535 0.80405273 2.08520508 1.21826172 C2.88313477 1.67942383 3.68106445 2.14058594 4.50317383 2.61572266 C5.36168945 3.12135742 6.22020508 3.62699219 7.10473633 4.14794922 C8.01094727 4.67420898 8.9171582 5.20046875 9.85083008 5.74267578 C11.82285231 6.88791437 13.79332971 8.03581615 15.76245117 9.18603516 C19.04212858 11.09566933 22.33168933 12.98721554 25.62426758 14.87451172 C47.47954343 27.40959319 47.47954343 27.40959319 57.91723633 34.02294922 C56.52378054 41.04076799 54.44979426 47.56458212 51.97973633 54.27294922 C51.59221191 55.33763428 51.2046875 56.40231934 50.80541992 57.49926758 C46.33438214 69.72440269 41.69567313 81.88690396 37.05102539 94.046875 C35.65913499 97.70043745 34.28456679 101.3601335 32.91723633 105.02294922 C28.37062614 104.34632121 24.38526613 102.64783885 20.20239258 100.82763672 C18.69679034 100.18770847 17.19092265 99.54840451 15.68481445 98.90966797 C13.32744851 97.9043894 10.97231409 96.89472644 8.62158203 95.87402344 C6.34154024 94.88668072 4.05413995 93.91840584 1.76489258 92.95263672 C1.06783707 92.64437958 0.37078156 92.33612244 -0.34739685 92.01852417 C-6.42601263 89.48188461 -10.15390784 90.22057479 -16.06860352 92.51342773 C-17.56305157 93.13634949 -19.05463641 93.76617268 -20.54370117 94.40185547 C-21.72955307 94.89914406 -21.72955307 94.89914406 -22.93936157 95.40647888 C-25.44807392 96.46012938 -27.95292143 97.52263575 -30.45776367 98.58544922 C-32.16454693 99.30413741 -33.87157575 100.02224273 -35.57885742 100.73974609 C-39.74969915 102.49407883 -43.91709924 104.2563602 -48.08276367 106.02294922 C-50.58348009 103.80591706 -51.69188669 101.96009852 -52.76513672 98.80883789 C-53.20656258 97.53425972 -53.20656258 97.53425972 -53.65690613 96.2339325 C-53.9663063 95.3122377 -54.27570648 94.39054291 -54.59448242 93.44091797 C-54.92640091 92.47632156 -55.2583194 91.51172516 -55.60029602 90.51789856 C-56.66521533 87.41817403 -57.718192 84.3145552 -58.77026367 81.21044922 C-59.80245538 78.1876888 -60.8371862 75.16581211 -61.87307739 72.14431763 C-62.56225988 70.13397319 -63.24998441 68.12312834 -63.93624878 66.11178589 C-66.71890847 57.98737162 -69.64257244 49.91847178 -72.66105652 41.87870789 C-72.97915787 41.02049942 -73.29725922 40.16229095 -73.625 39.27807617 C-73.9072493 38.52605423 -74.1894986 37.77403229 -74.4803009 36.9992218 C-75.08276367 35.02294922 -75.08276367 35.02294922 -75.08276367 32.02294922 C-66.36693624 27.60955994 -57.60916081 23.3098351 -48.77026367 19.14794922 C-41.76776298 15.842953 -34.86070515 12.40163205 -28.02026367 8.77294922 C-27.23659424 8.35827393 -26.4529248 7.94359863 -25.64550781 7.51635742 C-22.81763866 6.01677089 -19.99069752 4.51613348 -17.17797852 2.98828125 C-15.52753914 2.09230244 -13.86797353 1.21319143 -12.20776367 0.33544922 C-11.3234668 -0.14279297 -10.43916992 -0.62103516 -9.52807617 -1.11376953 C-5.97666553 -2.3675423 -3.3642941 -1.57823291 0 0 Z " fill="#F40000" transform="translate(506.082763671875,325.97705078125)"/>
<path d="M0 0 C1.01964844 -0.03738281 2.03929687 -0.07476563 3.08984375 -0.11328125 C4.55744141 -0.13068359 4.55744141 -0.13068359 6.0546875 -0.1484375 C6.95429199 -0.16825684 7.85389648 -0.18807617 8.78076172 -0.20849609 C11.125 0.375 11.125 0.375 12.81494141 2.57470703 C14.07129286 5.26019924 15.16979386 7.90751222 16.15625 10.703125 C16.54570801 11.79004639 16.93516602 12.87696777 17.33642578 13.99682617 C17.76165527 15.19412354 18.18688477 16.3914209 18.625 17.625 C24.72384479 34.60273849 31.28966736 51.3977844 37.83789062 68.20605469 C38.24550629 69.25265762 38.65312195 70.29926056 39.0730896 71.37757874 C39.84647123 73.36233129 40.6207044 75.3467523 41.39590454 77.33079529 C41.74108124 78.21574173 42.08625793 79.10068817 42.44189453 80.01245117 C42.74402863 80.78578293 43.04616272 81.55911469 43.35745239 82.35588074 C43.98772335 84.01387851 44.5640902 85.69227059 45.125 87.375 C45.455 58.665 45.785 29.955 46.125 0.375 C54.045 0.375 61.965 0.375 70.125 0.375 C70.125 49.875 70.125 99.375 70.125 150.375 C62.535 150.375 54.945 150.375 47.125 150.375 C44.54043597 145.20587193 42.38207153 140.67735506 40.49609375 135.32421875 C40.0191834 133.98554566 39.54212658 132.64692475 39.06494141 131.30834961 C38.69770966 130.26975296 38.69770966 130.26975296 38.32305908 129.21017456 C33.84744465 116.57188848 29.11766046 104.08394922 23.95483398 91.70776367 C21.51008149 85.83779872 19.18418668 79.93860807 16.96435547 73.98071289 C16.68978012 73.24605049 16.41520477 72.51138809 16.13230896 71.7544632 C15.46237851 69.96161778 14.79357238 68.1683523 14.125 66.375 C14.11469254 67.41260971 14.10438507 68.45021942 14.09376526 69.51927185 C13.99620396 79.27582473 13.89348673 89.03231137 13.78566074 98.78875637 C13.73038761 103.80519298 13.67696074 108.82163537 13.62768555 113.83813477 C13.58010657 118.67514866 13.52776637 123.51208931 13.47205925 128.34901619 C13.45160629 130.1986618 13.43289819 132.04832752 13.41592598 133.89800835 C13.3919468 136.47952454 13.36188382 139.06090097 13.33032227 141.64233398 C13.3245668 142.41485001 13.31881134 143.18736603 13.31288147 143.98329163 C13.23905216 149.26094784 13.23905216 149.26094784 12.125 150.375 C10.34428754 150.46226223 8.5601686 150.48199041 6.77734375 150.47265625 C5.69775391 150.46943359 4.61816406 150.46621094 3.50585938 150.46289062 C2.36955078 150.45451172 1.23324219 150.44613281 0.0625 150.4375 C-1.07767578 150.43298828 -2.21785156 150.42847656 -3.39257812 150.42382812 C-6.22010351 150.41199747 -9.0475264 150.3955141 -11.875 150.375 C-11.89832763 130.96508588 -11.9159785 111.55517459 -11.92681217 92.14524937 C-11.93197542 83.13353063 -11.93901866 74.12182058 -11.95043945 65.11010742 C-11.96038541 57.2584045 -11.96685322 49.40670786 -11.96908849 41.55499882 C-11.97039575 37.39496548 -11.97348255 33.23495015 -11.98073006 29.07492256 C-11.98748889 25.16391588 -11.98961724 21.25293473 -11.98810768 17.34192276 C-11.98838407 15.90232772 -11.99039001 14.46273187 -11.99420547 13.02314186 C-11.99914051 11.06605767 -11.99739807 9.10895996 -11.99525452 7.15187073 C-11.99617631 6.05401528 -11.9970981 4.95615984 -11.99804783 3.82503605 C-11.71062734 -1.89786518 -4.45635782 0.06150557 0 0 Z " fill="#F40000" transform="translate(790.875,601.625)"/>
<path d="M0 0 C61.5 0 61.5 0 69.375 5.25 C75.01597512 11.15959298 77.10839477 16.81921598 77.16113281 24.91088867 C77.17074036 26.10280319 77.1803479 27.29471771 77.19024658 28.52275085 C77.19449646 29.80817276 77.19874634 31.09359467 77.203125 32.41796875 C77.20736607 33.40509574 77.20736607 33.40509574 77.21169281 34.41216469 C77.22666357 37.89790877 77.23590507 41.38361173 77.24023438 44.86938477 C77.24570165 48.44903405 77.26969825 52.02829963 77.29820633 55.60782909 C77.31694765 58.37814892 77.32204447 61.14837866 77.32357025 63.91875648 C77.32802343 65.87338814 77.34661666 67.82797135 77.36553955 69.78251648 C77.34233097 79.12190799 76.52211404 87.49032299 69.81762695 94.50805664 C61.47906333 101.35251094 51.02005954 100.4811643 40.875 100.25 C39.33075246 100.2298943 37.7864795 100.21165076 36.2421875 100.1953125 C32.4942552 100.15166203 28.74729461 100.08286244 25 100 C25.00444122 100.59690643 25.00888245 101.19381287 25.01345825 101.80880737 C25.05760581 108.00516371 25.08783059 114.20147558 25.10986328 120.39794922 C25.11993892 122.71242079 25.13359975 125.02687959 25.15087891 127.34130859 C25.17505865 130.66246693 25.1864673 133.9834574 25.1953125 137.3046875 C25.20563507 138.34430634 25.21595764 139.38392517 25.22659302 140.45504761 C25.22674408 141.41589264 25.22689514 142.37673767 25.22705078 143.36669922 C25.231492 144.21497284 25.23593323 145.06324646 25.24050903 145.93722534 C25 148 25 148 23 150 C15.41 150 7.82 150 0 150 C0 100.5 0 51 0 0 Z " fill="#F30000" transform="translate(536,602)"/>
<path d="M0 0 C0.77470642 -0.01283524 1.54941284 -0.02567047 2.34759521 -0.03889465 C3.17680481 -0.04628159 4.0060144 -0.05366852 4.86035156 -0.0612793 C5.72356018 -0.06935104 6.5867688 -0.07742279 7.47613525 -0.08573914 C9.30177825 -0.09955166 11.12744675 -0.11028644 12.953125 -0.11816406 C14.81127543 -0.12967616 16.66939298 -0.15011582 18.52734375 -0.1796875 C21.2219067 -0.22255337 23.91548912 -0.23855939 26.61035156 -0.2487793 C27.84202057 -0.27504143 27.84202057 -0.27504143 29.09857178 -0.30183411 C35.74881688 -0.2771226 40.80157727 1.59359702 45.98925781 5.7824707 C53.54346954 14.80741392 53.4006096 24.44842083 53.18847656 35.73950195 C53.17339767 37.14378442 53.15971495 38.54808262 53.14746094 39.95239258 C53.11232062 43.3610031 53.06311779 46.76879466 53.00097656 50.17700195 C49.1884923 50.20587431 45.37603586 50.22375687 41.56347656 50.23950195 C40.47486328 50.24788086 39.38625 50.25625977 38.26464844 50.26489258 C37.23017578 50.26811523 36.19570312 50.27133789 35.12988281 50.2746582 C34.17154541 50.27989502 33.21320801 50.28513184 32.22583008 50.29052734 C30.00097656 50.17700195 30.00097656 50.17700195 29.00097656 49.17700195 C28.88029686 47.65150586 28.82145052 46.12100408 28.79003906 44.59106445 C28.76167969 43.66036133 28.73332031 42.7296582 28.70410156 41.77075195 C28.6522287 39.79958317 28.60789537 37.82820084 28.57128906 35.85668945 C28.54035156 34.9234082 28.50941406 33.99012695 28.47753906 33.02856445 C28.44781006 31.74199951 28.44781006 31.74199951 28.41748047 30.42944336 C28.15133542 28.13709119 28.15133542 28.13709119 26.77661133 26.39208984 C24.42904669 24.78562357 22.94430411 24.83257782 20.11425781 24.8840332 C18.70756836 24.89853516 18.70756836 24.89853516 17.27246094 24.91333008 C16.29599609 24.9384668 15.31953125 24.96360352 14.31347656 24.98950195 C13.32541016 25.00303711 12.33734375 25.01657227 11.31933594 25.03051758 C8.87933426 25.06587992 6.44042938 25.11523162 4.00097656 25.17700195 C2.81279688 28.91010628 2.88734917 32.4519184 2.90332031 36.34887695 C2.90544273 37.37250336 2.90544273 37.37250336 2.90760803 38.41680908 C2.91318572 40.58691879 2.92573402 42.75692366 2.93847656 44.92700195 C2.94349445 46.40226088 2.94805685 47.87752142 2.95214844 49.3527832 C2.96314782 52.96088994 2.98039703 56.5689357 3.00097656 60.17700195 C4.04995117 60.41217529 5.09892578 60.64734863 6.1796875 60.88964844 C15.23997009 62.93815738 24.22593271 65.23659845 33.18847656 67.67700195 C34.26282959 67.9613208 35.33718262 68.24563965 36.4440918 68.53857422 C49.0238336 72.01714975 49.0238336 72.01714975 52.13298035 76.98616028 C53.14954858 79.55200101 53.26132295 81.50413605 53.27563477 84.26171875 C53.28516678 85.2734465 53.29469879 86.28517426 53.30451965 87.32756042 C53.30360825 88.41611832 53.30269684 89.50467621 53.30175781 90.6262207 C53.30604294 91.75341019 53.31032806 92.88059967 53.31474304 94.04194641 C53.32048625 96.42834807 53.32098668 98.81476724 53.31665039 101.20117188 C53.31350351 104.83339798 53.33690521 108.46479919 53.36230469 112.09692383 C53.36457913 114.41918843 53.3652805 116.74145521 53.36425781 119.0637207 C53.37346756 120.14215744 53.38267731 121.22059418 53.39216614 122.33171082 C53.34384304 130.30299085 52.2160306 136.7241236 47.87597656 143.48950195 C41.68800919 149.27390624 34.92484595 150.78875636 26.65332031 150.6730957 C25.79718643 150.67455093 24.94105255 150.67600616 24.05897522 150.67750549 C22.26315886 150.67585757 20.46732673 150.66442171 18.67163086 150.64355469 C15.94160316 150.61453519 13.21351522 150.62298227 10.48339844 150.63598633 C8.72752974 150.62974909 6.9716671 150.62135826 5.21582031 150.6105957 C4.41039291 150.61353134 3.60496552 150.61646698 2.77513123 150.61949158 C-3.36140938 150.51855887 -8.96525985 149.47765568 -13.98730469 145.66918945 C-21.36792817 136.65568466 -21.42823106 127.50068352 -21.24902344 116.17700195 C-21.24253655 114.82935125 -21.2373189 113.48169382 -21.23339844 112.1340332 C-21.15345882 102.33143733 -21.15345882 102.33143733 -19.99902344 101.17700195 C-18.36429462 101.08999853 -16.72588289 101.06999133 -15.08886719 101.0793457 C-14.09951172 101.08256836 -13.11015625 101.08579102 -12.09082031 101.08911133 C-11.04990234 101.09749023 -10.00898438 101.10586914 -8.93652344 101.11450195 C-7.3693457 101.12126953 -7.3693457 101.12126953 -5.77050781 101.12817383 C-3.17995684 101.14000283 -0.58951785 101.15648506 2.00097656 101.17700195 C2.00508545 101.82773682 2.00919434 102.47847168 2.01342773 103.14892578 C2.0463183 106.09670941 2.11695419 109.0424133 2.18847656 111.98950195 C2.19427734 113.01366211 2.20007813 114.03782227 2.20605469 115.09301758 C2.19766753 120.77315657 2.19766753 120.77315657 5.07910156 125.35668945 C8.68707972 126.3696245 11.81450388 126.53789981 15.56347656 126.48950195 C16.86414063 126.48563477 18.16480469 126.48176758 19.50488281 126.4777832 C22.66124263 126.20623046 24.46949904 126.027642 27.00097656 124.17700195 C28.14014874 120.75948542 28.11436137 118.14212258 28.09863281 114.5402832 C28.09541016 113.24155273 28.0921875 111.94282227 28.08886719 110.60473633 C28.08051188 109.23299087 28.07204693 107.86124608 28.06347656 106.48950195 C28.05845991 105.10604 28.05389729 103.72257632 28.04980469 102.33911133 C28.03800185 98.951698 28.02153675 95.56437162 28.00097656 92.17700195 C22.95804109 89.88475856 18.00767928 88.23115176 12.65332031 86.8371582 C11.06273682 86.40975381 9.47224471 85.98200917 7.88183594 85.55395508 C5.40567127 84.89369365 2.92869648 84.23693532 0.44995117 83.58642578 C-1.96414671 82.95058351 -4.37422843 82.30101375 -6.78417969 81.6496582 C-7.51870865 81.46097672 -8.25323761 81.27229523 -9.01002502 81.07789612 C-13.61583583 79.82215874 -17.20566681 78.20231377 -20.99902344 75.17700195 C-21.97133 72.26008227 -22.13628774 70.3518714 -22.16015625 67.31347656 C-22.16976379 66.32492172 -22.17937134 65.33636688 -22.18927002 64.31785583 C-22.1935199 63.24914749 -22.19776978 62.18043915 -22.20214844 61.0793457 C-22.20784851 59.97530899 -22.21354858 58.87127228 -22.21942139 57.73377991 C-22.22887558 55.39267943 -22.23540703 53.05156562 -22.23925781 50.71044922 C-22.24891934 47.1528344 -22.27992116 43.5958082 -22.31152344 40.03833008 C-22.31805813 37.76033871 -22.32330677 35.48234321 -22.32714844 33.2043457 C-22.33949524 32.14980698 -22.35184204 31.09526825 -22.36456299 30.0087738 C-22.33704283 20.74135984 -21.11945761 12.49459978 -14.54589844 5.5793457 C-10.14699367 1.59144972 -5.84338582 0.08489506 0 0 Z " fill="#F30000" transform="translate(169.9990234375,601.822998046875)"/>
<path d="M0 0 C0.85613388 -0.00145523 1.71226776 -0.00291046 2.59434509 -0.00440979 C4.39016145 -0.00276187 6.18599358 0.008674 7.98168945 0.02954102 C10.71171716 0.05856052 13.43980509 0.05011344 16.16992188 0.03710938 C17.92579057 0.04334662 19.68165321 0.05173745 21.4375 0.0625 C22.2429274 0.05956436 23.0483548 0.05662872 23.87818909 0.05360413 C30.1580377 0.15689394 35.81358657 1.23011235 40.859375 5.2578125 C41.38917969 5.89332031 41.91898437 6.52882813 42.46484375 7.18359375 C43.27888672 8.11751953 43.27888672 8.11751953 44.109375 9.0703125 C49.08338669 16.89021443 49.06657665 24.27036498 48.93359375 33.28930664 C48.9020637 35.45280975 48.89257784 37.61558534 48.88671875 39.77929688 C48.81634269 50.33209481 48.81634269 50.33209481 47.65234375 51.49609375 C45.95675649 51.59541528 44.25708628 51.62689382 42.55859375 51.62890625 C41.52863281 51.63019531 40.49867188 51.63148438 39.4375 51.6328125 C37.81134766 51.62701172 37.81134766 51.62701172 36.15234375 51.62109375 C35.06824219 51.62496094 33.98414063 51.62882813 32.8671875 51.6328125 C31.83722656 51.63152344 30.80726563 51.63023437 29.74609375 51.62890625 C28.79412109 51.62777832 27.84214844 51.62665039 26.86132812 51.62548828 C24.65234375 51.49609375 24.65234375 51.49609375 23.65234375 50.49609375 C23.51914077 48.8131649 23.44895534 47.12515186 23.40625 45.4375 C23.37337891 44.41205078 23.34050781 43.38660156 23.30664062 42.33007812 C23.24555521 40.15309794 23.18824938 37.97600833 23.13476562 35.79882812 C23.10060547 34.77208984 23.06644531 33.74535156 23.03125 32.6875 C23.00619385 31.74076416 22.9811377 30.79402832 22.95532227 29.81860352 C22.86739385 27.30467951 22.86739385 27.30467951 20.65234375 25.49609375 C18.55420994 25.18624844 18.55420994 25.18624844 16.15234375 25.23046875 C14.82203125 25.22660156 14.82203125 25.22660156 13.46484375 25.22265625 C12.53671875 25.23039063 11.60859375 25.238125 10.65234375 25.24609375 C9.72421875 25.23835937 8.79609375 25.230625 7.83984375 25.22265625 C6.95296875 25.22523438 6.06609375 25.2278125 5.15234375 25.23046875 C4.33765625 25.23272461 3.52296875 25.23498047 2.68359375 25.23730469 C0.42603924 25.31435082 0.42603924 25.31435082 -1.34765625 27.49609375 C-1.5570238 30.46244462 -1.64128643 33.33616766 -1.63818359 36.30444336 C-1.64490082 37.21675217 -1.65161804 38.12906097 -1.65853882 39.0690155 C-1.67759236 42.09554435 -1.68144663 45.12185235 -1.68359375 48.1484375 C-1.69001628 50.24589633 -1.69674422 52.34335425 -1.70376587 54.44081116 C-1.71575686 58.84166543 -1.71944479 63.24244109 -1.71826172 67.64331055 C-1.71805836 73.29077741 -1.74536968 78.93774197 -1.77980614 84.58508968 C-1.80201035 88.91816029 -1.80610126 93.25110874 -1.80504227 97.58423042 C-1.80740766 99.66671036 -1.81628357 101.74919319 -1.831707 103.83161736 C-1.85123722 106.74088912 -1.84558027 109.64906127 -1.83349609 112.55834961 C-1.85035461 113.85591187 -1.85035461 113.85591187 -1.86755371 115.1796875 C-1.88166891 119.79590605 -1.88166891 119.79590605 0.55403137 123.52845764 C4.22131279 125.21962334 7.73672417 125.00873273 11.71484375 124.99609375 C12.53017578 125.02445313 13.34550781 125.0528125 14.18554688 125.08203125 C18.93080941 125.15457248 18.93080941 125.15457248 22.66796875 122.515625 C23.96524673 118.53627629 24.21679082 114.84549079 24.33984375 110.68359375 C24.44296875 107.98171875 24.54609375 105.27984375 24.65234375 102.49609375 C32.57234375 102.49609375 40.49234375 102.49609375 48.65234375 102.49609375 C48.76110765 106.93426498 48.84004381 111.36972296 48.90234375 115.80859375 C48.93585938 117.05189453 48.969375 118.29519531 49.00390625 119.57617188 C49.09489905 128.24323652 48.62831213 136.88685214 42.72558594 143.72973633 C36.27457552 149.98614739 29.34276261 150.80779186 20.71875 150.83203125 C19.88198227 150.83868805 19.04521454 150.84534485 18.18309021 150.85220337 C16.42245668 150.86227791 14.66178537 150.86702201 12.90112305 150.86669922 C10.22575372 150.8710759 7.55203172 150.90745877 4.87695312 150.9453125 C3.15755766 150.95118132 1.43815445 150.95515028 -0.28125 150.95703125 C-1.07107773 150.97140228 -1.86090546 150.98577332 -2.67466736 151.00057983 C-9.04465254 150.94884331 -14.12203217 149.22246913 -19.02806091 145.07577515 C-26.25577633 137.51381346 -27.95257198 127.67461869 -27.84936523 117.58374023 C-27.85476822 116.55456482 -27.8601712 115.5253894 -27.86573792 114.46502686 C-27.87813755 111.09877827 -27.86179332 107.73339968 -27.84375 104.3671875 C-27.84390518 102.00789851 -27.84539729 99.64860927 -27.84815979 97.2893219 C-27.84953983 92.35951381 -27.83705069 87.42999805 -27.81420898 82.50024414 C-27.78581041 76.2002387 -27.78857148 69.90071792 -27.8012991 63.60067654 C-27.80827319 58.73374841 -27.80044742 53.86693113 -27.78804207 49.00001717 C-27.78354552 46.67772917 -27.78317496 44.3554292 -27.78710747 42.03314018 C-27.79003705 38.78153185 -27.77342938 35.53057807 -27.75170898 32.27905273 C-27.75846146 30.85811058 -27.75846146 30.85811058 -27.76535034 29.40846252 C-27.67021825 20.78176642 -26.27512427 12.39002423 -20.12901306 5.95167542 C-14.1452829 1.06225189 -7.5128464 -0.10505205 0 0 Z " fill="#F30000" transform="translate(270.34765625,601.50390625)"/>
<path d="M0 0 C9.9 0 19.8 0 30 0 C30 51.48 30 102.96 30 156 C20.1 156 10.2 156 0 156 C-1.79531636 154.20468364 -1.12617173 151.50684434 -1.12698364 149.08473206 C-1.12980347 147.79888214 -1.13262329 146.51303223 -1.13552856 145.18821716 C-1.13358395 143.74990831 -1.13153577 142.31159959 -1.12939453 140.87329102 C-1.13074853 139.36901812 -1.13252845 137.86474556 -1.13470459 136.36047363 C-1.13927953 132.26341357 -1.13748901 128.16637858 -1.1343255 124.06931806 C-1.13180175 119.79010272 -1.13413953 115.51088961 -1.13571167 111.23167419 C-1.13753352 104.04303602 -1.13512687 96.8544081 -1.13037109 89.66577148 C-1.12493051 81.34574071 -1.12668959 73.02573445 -1.1321975 64.70570427 C-1.13673066 57.57365031 -1.13737812 50.44160373 -1.13475883 43.3095488 C-1.13319691 39.04498546 -1.13299993 34.78043365 -1.13629532 30.51587105 C-1.1391769 26.50634994 -1.13719302 22.49686051 -1.13140106 18.48734283 C-1.13007492 17.01269267 -1.13046512 15.53803985 -1.13266373 14.06339073 C-1.13538095 12.0563453 -1.13137539 10.04929406 -1.12698364 8.04225159 C-1.12660662 6.91711938 -1.12622959 5.79198717 -1.12584114 4.63276005 C-1 2 -1 2 0 0 Z " fill="#FDF6ED" transform="translate(571,793)"/>
<path d="M0 0 C3.97915159 -0.02886984 7.95827653 -0.04675406 11.9375 -0.0625 C13.07380859 -0.07087891 14.21011719 -0.07925781 15.38085938 -0.08789062 C16.46044922 -0.09111328 17.54003906 -0.09433594 18.65234375 -0.09765625 C20.15269165 -0.10551147 20.15269165 -0.10551147 21.68334961 -0.11352539 C24 0 24 0 25 1 C25.09875162 2.89372768 25.12632196 4.79118414 25.12698364 6.68748474 C25.12980347 7.92284973 25.13262329 9.15821472 25.13552856 10.43101501 C25.13358396 11.81265273 25.13153577 13.19429031 25.12939453 14.57592773 C25.13074854 16.0210881 25.13252847 17.46624811 25.13470459 18.91140747 C25.13927935 22.84731598 25.13748908 26.7831984 25.1343255 30.71910739 C25.13180164 34.83015945 25.13413956 38.94120921 25.13571167 43.05226135 C25.13753349 49.95842898 25.13512694 56.86458594 25.13037109 63.77075195 C25.1249306 71.76359362 25.12668953 79.75640978 25.1321975 87.74925083 C25.13673083 94.60105242 25.13737803 101.45284633 25.13475883 108.30464894 C25.133197 112.40153838 25.1329997 116.49841581 25.13629532 120.59530449 C25.13917715 124.44723712 25.13719256 128.29913677 25.13140106 132.15106583 C25.13007505 133.56766391 25.1304649 134.98426475 25.13266373 136.40086174 C25.13538146 138.32908405 25.13137494 140.25731239 25.12698364 142.18553162 C25.12660662 143.26641776 25.12622959 144.34730391 25.12584114 145.46094418 C25 148 25 148 24 150 C20.18751574 150.02887236 16.3750593 150.04675492 12.5625 150.0625 C11.47388672 150.07087891 10.38527344 150.07925781 9.26367188 150.08789062 C8.22919922 150.09111328 7.19472656 150.09433594 6.12890625 150.09765625 C4.69140015 150.10551147 4.69140015 150.10551147 3.22485352 150.11352539 C1 150 1 150 0 149 C-0.09660952 147.07638373 -0.12187168 145.14916934 -0.12025452 143.22312927 C-0.12162918 141.96804565 -0.12300385 140.71296204 -0.12442017 139.41984558 C-0.12088055 138.01614356 -0.11724574 136.61244178 -0.11352539 135.20874023 C-0.11324353 133.74063112 -0.11340124 132.27252187 -0.1139679 130.80441284 C-0.1142559 126.80665343 -0.10835874 122.80892376 -0.10139394 118.81117129 C-0.09516085 114.63779267 -0.09455664 110.46441344 -0.09336853 106.29103088 C-0.09025508 98.38267208 -0.08204151 90.47432703 -0.07201904 82.5659743 C-0.06085832 73.56491506 -0.05534756 64.56385518 -0.05032361 55.56279075 C-0.03985891 37.04185269 -0.0222592 18.52092745 0 0 Z " fill="#F40000" transform="translate(634,602)"/>
<path d="M0 0 C0.969375 -0.00515625 1.93875 -0.0103125 2.9375 -0.015625 C3.948125 -0.00015625 4.95875 0.0153125 6 0.03125 C7.010625 0.01578125 8.02125 0.0003125 9.0625 -0.015625 C10.031875 -0.01046875 11.00125 -0.0053125 12 0 C12.886875 0.00451172 13.77375 0.00902344 14.6875 0.01367188 C17 0.53125 17 0.53125 18.61927795 1.99414062 C20.6958182 5.80983238 20.42625705 9.36288295 20.40405273 13.64257812 C20.41091599 14.56332626 20.41777924 15.4840744 20.42485046 16.432724 C20.44315139 19.47613953 20.4392766 22.51904125 20.43359375 25.5625 C20.43815363 27.67712574 20.44345862 29.79174999 20.44947815 31.90637207 C20.45841548 36.33819601 20.45597859 40.76983981 20.44604492 45.20166016 C20.43454848 50.88487001 20.45477421 56.56745917 20.48396206 62.25058746 C20.50229429 66.61716673 20.50203763 70.98359639 20.49632454 75.35020447 C20.49617099 77.44580456 20.50224277 79.54141458 20.51461601 81.63697815 C20.5294696 84.56502421 20.51889065 87.49191242 20.50170898 90.41992188 C20.51137695 91.28757675 20.52104492 92.15523163 20.53100586 93.04917908 C20.45880443 98.9158319 20.45880443 98.9158319 18.10780334 102.0693512 C15.64501443 103.7774556 14.35038132 104.03430973 11.375 104.02734375 C10.50359375 104.02798828 9.6321875 104.02863281 8.734375 104.02929688 C7.83203125 104.00931641 6.9296875 103.98933594 6 103.96875 C4.64648438 103.97938477 4.64648438 103.97938477 3.265625 103.99023438 C-3.12455312 103.92879035 -3.12455312 103.92879035 -6.10780334 102.57409668 C-9.15364683 99.28575388 -8.54918968 95.76639943 -8.50170898 91.44165039 C-8.50981346 90.04611687 -8.50981346 90.04611687 -8.51808167 88.62239075 C-8.53060905 85.54090757 -8.51404984 82.46035149 -8.49609375 79.37890625 C-8.49624866 77.24043224 -8.49773626 75.10195794 -8.50050354 72.96348572 C-8.50188938 68.47854218 -8.48929943 63.99391771 -8.46655273 59.5090332 C-8.43818492 53.75748355 -8.44089842 48.00646497 -8.45364285 42.25487614 C-8.46059563 37.83767658 -8.45281499 33.42059993 -8.44038582 29.00341606 C-8.43586623 26.88270985 -8.43553894 24.76199046 -8.43945122 22.64128304 C-8.44235902 19.67732806 -8.4258761 16.7141065 -8.40405273 13.75024414 C-8.40855438 12.87166748 -8.41305603 11.99309082 -8.41769409 11.08789062 C-8.37392628 7.51332628 -8.34499104 5.16686055 -6.61927795 1.9874115 C-4.39230357 -0.0152307 -2.96886258 0.01510323 0 0 Z " fill="#000000" transform="translate(372,625.46875)"/>
<path d="M0 0 C1.01900391 0.00322266 2.03800781 0.00644531 3.08789062 0.00976562 C4.10302734 -0.00634766 5.11816406 -0.02246094 6.1640625 -0.0390625 C7.62489258 -0.0400293 7.62489258 -0.0400293 9.11523438 -0.04101562 C10.45509399 -0.04548706 10.45509399 -0.04548706 11.82202148 -0.05004883 C14.66831298 0.40508324 15.3752497 1.0971739 17.15039062 3.32226562 C17.53070736 5.19791412 17.53070736 5.19791412 17.53807068 7.34533691 C17.54797531 8.16129837 17.55787994 8.97725983 17.56808472 9.81794739 C17.56133224 11.1552314 17.56133224 11.1552314 17.55444336 12.51953125 C17.56130661 13.4612468 17.56816986 14.40296234 17.57524109 15.37321472 C17.59357032 18.49180092 17.58966317 21.60988703 17.58398438 24.72851562 C17.58854293 26.89180669 17.59384752 29.0550963 17.59986877 31.21838379 C17.6088117 35.75453572 17.60636291 40.29051171 17.59643555 44.82666016 C17.58493901 50.64787512 17.60516219 56.46848412 17.63435268 62.28961945 C17.65267228 66.75738399 17.65243078 71.22500214 17.64671516 75.6927948 C17.64656146 77.83946076 17.6526462 79.98613634 17.66500664 82.13276672 C17.67983629 85.13056809 17.66929894 88.12723486 17.65209961 91.125 C17.66176758 92.01652267 17.67143555 92.90804535 17.68139648 93.82658386 C17.60910648 99.82465541 17.60910648 99.82465541 15.25918579 102.37382507 C12.83602655 103.46365235 11.1438642 103.69546148 8.49023438 103.68554688 C7.61431641 103.68490234 6.73839844 103.68425781 5.8359375 103.68359375 C4.4756543 103.65942383 4.4756543 103.65942383 3.08789062 103.63476562 C2.17716797 103.63798828 1.26644531 103.64121094 0.328125 103.64453125 C-6.44861045 103.58959824 -6.44861045 103.58959824 -9.84960938 101.32226562 C-10.22433949 99.5356369 -10.22433949 99.5356369 -10.22383118 97.33679199 C-10.23084549 96.50393173 -10.2378598 95.67107147 -10.24508667 94.81297302 C-10.23744293 93.89758255 -10.22979919 92.98219208 -10.22192383 92.0390625 C-10.22557449 91.07637955 -10.22922516 90.11369659 -10.23298645 89.12184143 C-10.24111665 85.92805541 -10.22746122 82.73477282 -10.21289062 79.54101562 C-10.21237232 77.32906088 -10.21288888 75.11710566 -10.21440125 72.90515137 C-10.21431141 68.26466006 -10.20385907 63.62434208 -10.18579102 58.98388672 C-10.16310355 53.02481557 -10.16255857 47.06599789 -10.16930866 41.10689545 C-10.17264439 36.53796115 -10.16602602 31.96908502 -10.15617943 27.40016174 C-10.1523203 25.20244145 -10.15118215 23.00471469 -10.15276527 20.80699158 C-10.15313464 17.73969108 -10.14055177 14.67271995 -10.12426758 11.60546875 C-10.126745 10.69007828 -10.12922241 9.77468781 -10.1317749 8.83155823 C-10.05842247 0.20855482 -7.81847314 0.05699351 0 0 Z " fill="#000000" transform="translate(714.849609375,625.677734375)"/>
<path d="M0 0 C7.92 0 15.84 0 24 0 C27.04659331 3.04659331 27.12321571 6.05313984 27.14526367 10.23022461 C27.15164352 11.05465561 27.15802338 11.87908661 27.16459656 12.72850037 C27.16570938 13.61086868 27.1668222 14.493237 27.16796875 15.40234375 C27.17129715 16.31705948 27.17462555 17.23177521 27.17805481 18.17420959 C27.18311181 20.10661314 27.18546351 22.03902539 27.18530273 23.97143555 C27.18748938 26.92316093 27.20565851 29.87451257 27.22460938 32.82617188 C27.22754354 34.70572789 27.22952818 36.58528568 27.23046875 38.46484375 C27.23765427 39.34518784 27.24483978 40.22553192 27.25224304 41.1325531 C27.2163641 50.7836359 27.2163641 50.7836359 24 54 C22.55869931 54.09888535 21.11265623 54.13079377 19.66796875 54.1328125 C18.78689453 54.13410156 17.90582031 54.13539063 16.99804688 54.13671875 C15.60682617 54.13091797 15.60682617 54.13091797 14.1875 54.125 C13.27162109 54.12886719 12.35574219 54.13273438 11.41210938 54.13671875 C10.52716797 54.13542969 9.64222656 54.13414062 8.73046875 54.1328125 C7.91989014 54.13168457 7.10931152 54.13055664 6.27416992 54.12939453 C4 54 4 54 0 53 C0 35.51 0 18.02 0 0 Z " fill="#020000" transform="translate(463,626)"/>
<path d="M0 0 C22 0 22 0 27 3 C28.13811789 5.27623578 28.1379334 6.56584102 28.16113281 9.0949707 C28.17074036 9.93957352 28.1803479 10.78417633 28.19024658 11.65437317 C28.19449646 12.56893784 28.19874634 13.4835025 28.203125 14.42578125 C28.20882507 15.36552292 28.21452515 16.30526459 28.22039795 17.27348328 C28.22985474 19.26491162 28.23638462 21.25635566 28.24023438 23.24780273 C28.24992776 26.28983013 28.28093972 29.33117849 28.3125 32.37304688 C28.31903125 34.30728765 28.32428124 36.24153327 28.328125 38.17578125 C28.3404718 39.08427322 28.3528186 39.9927652 28.36553955 40.92878723 C28.36253845 41.78284653 28.35953735 42.63690582 28.35644531 43.5168457 C28.36009094 44.26360062 28.36373657 45.01035553 28.36749268 45.77973938 C28 48 28 48 25 53 C17.08 53 9.16 53 1 53 C0.67 35.51 0.34 18.02 0 0 Z " fill="#050000" transform="translate(560,626)"/>
<path d="M0 0 C0.66 0 1.32 0 2 0 C2.34756348 0.99588135 2.69512695 1.9917627 3.05322266 3.01782227 C5.8509293 11.0047727 8.70474717 18.96796103 11.6484375 26.90234375 C12.10672943 28.13834824 12.10672943 28.13834824 12.57427979 29.39932251 C13.82997687 32.78292778 15.08732212 36.16590837 16.34814453 39.54760742 C17.28442294 42.06063911 18.21672217 44.5751174 19.1484375 47.08984375 C19.43584808 47.85739487 19.72325867 48.62494598 20.01937866 49.41575623 C22 54.77308124 22 54.77308124 22 57 C8.14 57 -5.72 57 -20 57 C-18.14375 51.369375 -16.2875 45.73875 -14.375 39.9375 C-13.80313965 38.19460693 -13.2312793 36.45171387 -12.64208984 34.65600586 C-9.79732022 26.04561023 -6.74872816 17.5825836 -3.28369141 9.20141602 C-2.06603858 6.16469454 -1.00064073 3.11411881 0 0 Z " fill="#020201" transform="translate(474,833)"/>
<path d="M0 0 C0.66 0 1.32 0 2 0 C2 48.51 2 97.02 2 147 C1.34 147.33 0.68 147.66 0 148 C-0.15380174 128.99855027 -0.3018377 109.99706403 -0.4429636 90.99551582 C-0.50862238 82.17325624 -0.57618531 73.35101883 -0.64819336 64.52880859 C-0.7109329 56.84156108 -0.77013804 49.15429597 -0.82505554 41.46698844 C-0.85427256 37.39465438 -0.88528881 33.32235157 -0.92053413 29.25006485 C-0.95362434 25.42034143 -0.98200346 21.59061254 -1.00670624 17.76082611 C-1.01663365 16.35227743 -1.02830998 14.94373987 -1.04183006 13.5352211 C-1.05997698 11.61793039 -1.07132821 9.70057889 -1.08229065 7.78323364 C-1.09058679 6.70842302 -1.09888292 5.6336124 -1.10743046 4.52623177 C-1 2 -1 2 0 0 Z " fill="#CD0000" transform="translate(657,603)"/>
<path d="M0 0 C12.54 0 25.08 0 38 0 C38.495 1.485 38.495 1.485 39 3 C25.8 3.33 12.6 3.66 -1 4 C-0.67 2.68 -0.34 1.36 0 0 Z " fill="#E7E3DA" transform="translate(456,793)"/>
<path d="M0 0 C3.78496138 1.51398455 4.0072198 2.0144396 6 6 C2.7 5.01 -0.6 4.02 -4 3 C-2.68 2.01 -1.36 1.02 0 0 Z " fill="#E50300" transform="translate(432,566)"/>
<path d="M0 0 C0.99 0 1.98 0 3 0 C3.625 2.3125 3.625 2.3125 4 5 C3.01 6.485 3.01 6.485 2 8 C0.74335022 5.09399739 0 3.20395416 0 0 Z " fill="#EFECE4" transform="translate(504,828)"/>
<path d="M0 0 C4.75 0.75 4.75 0.75 7 3 C3.37 3 -0.26 3 -4 3 C-2.68 2.67 -1.36 2.34 0 2 C0 1.34 0 0.68 0 0 Z " fill="#DE0100" transform="translate(456,506)"/>
</svg>